<svg width="32" height="32" viewBox="0 0 32 32" fill="none" xmlns="http://www.w3.org/2000/svg">
<path fill-rule="evenodd" clip-rule="evenodd" d="M15.2217 4.17974L15.2205 4.18049L15.2192 4.18124C13.3877 5.27755 11.5562 6.37386 9.72437 7.46951C8.96885 7.017 8.21315 6.5647 7.45742 6.11239L7.45708 6.11219C6.36038 5.45581 5.26362 4.79938 4.16723 4.14218C3.76878 4.59509 3.39846 5.07439 3.05005 5.56978C4.09305 6.19465 5.13628 6.81908 6.17951 7.44351L6.18076 7.44426C7.36188 8.15121 8.54299 8.85817 9.72373 9.56575C11.9669 8.22437 14.2096 6.882 16.4522 5.53964C18.9928 4.01891 21.5335 2.4982 24.0749 0.97893C23.971 0.905351 23.8603 0.842798 23.7497 0.780286C23.702 0.753342 23.6543 0.726406 23.6072 0.698597C23.1516 0.442855 22.6851 0.207232 22.2074 0C19.8784 1.39236 17.5501 2.78605 15.2217 4.17974ZM24.7524 2.66364C24.5715 2.77159 24.3906 2.87954 24.21 2.98808C22.471 4.02883 20.7322 5.06976 18.9934 6.11068L18.9861 6.1151C15.8988 7.96325 12.8116 9.81138 9.72355 11.6585C8.27243 10.7886 6.82074 9.91961 5.36905 9.0506C4.28016 8.39876 3.19126 7.74692 2.1026 7.09472C1.81262 7.62185 1.55185 8.16642 1.31879 8.72373C2.79964 9.61017 4.28061 10.4961 5.76157 11.382L5.76296 11.3829L5.76435 11.3837L5.76539 11.3843L5.76644 11.385C7.08573 12.1742 8.40501 12.9634 9.7242 13.753C14.4786 10.9091 19.2323 8.06418 23.986 5.2192L27.0989 3.35627C26.6523 2.91051 26.1842 2.48688 25.6891 2.10059C25.378 2.29037 25.0652 2.47701 24.7524 2.66364ZM23.4117 7.65353L23.4203 7.64837L28.3159 4.71777C28.6897 5.1888 29.0394 5.68016 29.3633 6.18941C22.8174 10.1071 16.2713 14.0251 9.72611 17.9444C7.77796 16.7798 5.83063 15.6139 3.88331 14.448L3.88256 14.4476C2.67925 13.7271 1.47595 13.0067 0.272461 12.2865C0.382869 11.6662 0.527431 11.0521 0.705716 10.4487C2.20898 11.3483 3.71213 12.2481 5.21528 13.1478C6.71828 14.0474 8.22128 14.9471 9.72439 15.8466C14.2869 13.1159 18.8493 10.3847 23.4117 7.65353ZM19.9786 13.8977C16.5605 15.9441 13.1423 17.9905 9.72387 20.0366L8.44606 19.2715C5.64314 17.5933 2.84028 15.9151 0.0369459 14.2373C0.018473 14.5227 0.00923648 14.8087 0 15.0948V15.6333C0.0111697 16.0816 0.0320055 16.5298 0.074751 16.9764C0.232416 18.6763 0.644405 20.3503 1.29332 21.9191C1.98327 23.5913 2.94107 25.1432 4.11238 26.4943C5.90383 28.5662 8.20113 30.1617 10.7317 31.0765C12.341 31.6622 14.0416 31.9693 15.7458 31.9997H16.2633C17.9613 31.9682 19.6557 31.6624 21.2596 31.0796C23.8282 30.153 26.1569 28.5249 27.961 26.4092C28.9042 25.3053 29.7069 24.0708 30.338 22.7474C30.9822 21.3996 31.4476 19.9595 31.7176 18.4807C32.077 16.5128 32.0931 14.478 31.7673 12.5038C31.4951 10.8518 30.9785 9.24402 30.2432 7.75293C26.8215 9.80097 23.4001 11.8493 19.9786 13.8977Z" fill="#299D30"/>
</svg>
