<svg width="32" height="32" viewBox="0 0 32 32" fill="none" xmlns="http://www.w3.org/2000/svg">
<path d="M15.9971 31.9963C24.831 31.9963 31.9923 24.8337 31.9923 15.9982C31.9923 7.16262 24.831 0 15.9971 0C7.16324 0 0.00195312 7.16262 0.00195312 15.9982C0.00195312 24.8337 7.16324 31.9963 15.9971 31.9963Z" fill="#FFC800"/>
<path d="M22.8812 27.9173C17.4491 31.0523 11.5579 31.6142 7.79492 29.7362C12.6127 32.6075 18.7986 32.8558 23.998 29.8542C29.1973 26.8495 32.0762 21.3678 31.9987 15.7588C31.7443 19.9585 28.3132 24.7822 22.8812 27.9173Z" fill="black"/>
<path d="M18.0265 1.17323C19.1278 3.07911 16.466 6.67978 12.0794 9.20956C7.69287 11.7393 3.24735 12.2484 2.14605 10.3394C2.09952 10.2494 2.05609 10.1501 2.02507 10.0476C1.73966 9.1599 2.08091 8.0114 2.903 6.80083C3.0364 6.61149 3.1729 6.42525 3.3125 6.24211C4.5534 4.62491 6.12624 3.22189 7.99999 2.14169C9.87375 1.05838 11.8747 0.40033 13.8943 0.133384C14.13 0.0992398 14.3596 0.0744083 14.583 0.0588881C16.041 -0.0497528 17.2044 0.22961 17.831 0.918704C17.9055 1.00251 17.9706 1.08632 18.0265 1.17323Z" fill="black"/>
<path d="M24.8261 3.23732C26.7495 6.56794 22.8686 12.4066 16.1615 16.2804C9.45444 20.1543 2.45577 20.595 0.535481 17.2644C0.21595 16.7088 0.0453267 16.0911 0.011202 15.4268C-0.0725587 17.6648 0.31212 19.9401 1.20867 22.1005C1.34207 22.4233 1.48787 22.743 1.64298 23.0596C1.64919 23.0721 1.6585 23.0876 1.6647 23.1C2.24482 24.1026 3.10104 24.891 4.16821 25.4622C7.93124 27.4767 14.2939 26.7845 20.2441 23.3483C26.1911 19.9122 29.9727 14.7502 30.1123 10.4852C30.1526 9.28086 29.9014 8.14789 29.3274 7.14529C29.1103 6.81937 28.8838 6.49965 28.6449 6.19546C27.2334 4.37029 25.4776 2.9176 23.5262 1.88086C24.0691 2.23782 24.5096 2.68791 24.8261 3.23732C24.8261 3.23732 24.8292 3.24042 24.8292 3.24353L24.8261 3.23732Z" fill="black"/>
<path d="M16.001 31.9963C24.8349 31.9963 31.9962 24.8337 31.9962 15.9982C31.9962 7.16262 24.8349 0 16.001 0C7.16715 0 0.00585938 7.16262 0.00585938 15.9982C0.00585938 24.8337 7.16715 31.9963 16.001 31.9963Z" fill="url(#paint0_radial_8_201)"/>
<defs>
<radialGradient id="paint0_radial_8_201" cx="0" cy="0" r="1" gradientUnits="userSpaceOnUse" gradientTransform="translate(15.9996 15.9995) scale(15.9948 16.004)">
<stop offset="0.5" stop-color="white" stop-opacity="0"/>
<stop offset="1" stop-color="white" stop-opacity="0.35"/>
</radialGradient>
</defs>
</svg>
